<svg width="78" height="100" viewBox="0 0 78 100" fill="none" xmlns="http://www.w3.org/2000/svg">
<g filter="url(#filter0_d_755_1581)">
<path opacity="0.95" d="M53.5298 19.5695C47.966 25.3574 38.7278 25.5046 38.7278 25.5046C38.7278 25.5046 38.5104 16.2678 44.0742 10.4799C49.638 4.692 58.8762 4.54479 58.8762 4.54479C58.8762 4.54479 59.0936 13.7816 53.5298 19.5695Z" fill="#7DC37B"/>
<circle opacity="0.95" cx="39" cy="60" r="35" fill="#FBB869"/>
<path d="M19.389 52.82C19.799 52.42 20.169 52.03 20.559 51.56C20.829 51.27 20.989 51.12 21.159 51.01C21.239 50.96 21.299 50.87 21.299 50.79C21.299 50.74 21.279 50.68 21.219 50.64C20.999 50.46 20.559 50.19 20.109 49.94C19.949 50.37 19.819 50.57 19.479 50.97C18.859 51.71 18.139 52.41 17.349 53.06C16.429 53.82 15.579 54.4 14.199 55.11C14.499 55.27 14.829 55.47 15.059 55.7C15.129 55.77 15.189 55.8 15.269 55.8C15.319 55.8 15.369 55.79 15.419 55.76C16.219 55.34 17.289 54.58 18.169 53.84V56.17C18.169 56.85 18.139 57.5 18.129 58.22C18.119 58.34 18.159 58.38 18.269 58.38C18.589 58.4 18.949 58.4 19.269 58.38C19.379 58.38 19.429 58.34 19.419 58.21C19.399 57.41 19.389 56.82 19.389 56.13V52.82ZM23.861 54.87C24.221 55.24 24.521 55.53 24.791 55.75C24.841 55.8 24.891 55.82 24.931 55.82C25.001 55.82 25.061 55.77 25.111 55.69C25.161 55.61 25.241 55.48 25.511 55.18C26.201 54.42 26.651 53.88 27.141 53.37C27.191 53.32 27.231 53.29 27.301 53.29C27.351 53.29 27.401 53.31 27.461 53.36C28.901 54.64 30.301 55.75 31.891 56.85C31.931 56.88 31.961 56.89 32.001 56.89C32.051 56.89 32.101 56.85 32.151 56.78C32.321 56.55 32.491 56.27 32.671 55.91C32.731 55.8 32.711 55.7 32.581 55.64C30.901 54.61 29.371 53.52 28.101 52.39C27.731 52.06 27.541 51.98 27.231 51.98C26.921 51.98 26.731 52.09 26.331 52.51C25.861 53.01 25.371 53.52 24.881 54.02C24.501 54.42 24.261 54.62 23.861 54.87ZM29.321 51.65C29.711 51.97 30.031 52.35 30.331 52.81C30.381 52.88 30.431 52.89 30.501 52.84L30.921 52.53C30.991 52.48 30.991 52.43 30.951 52.37C30.671 51.94 30.311 51.54 30.001 51.3C29.941 51.25 29.901 51.24 29.851 51.28L29.321 51.65ZM30.241 50.99C30.651 51.33 30.971 51.71 31.241 52.14C31.281 52.2 31.331 52.23 31.411 52.17L31.811 51.86C31.891 51.8 31.881 51.74 31.841 51.68C31.621 51.33 31.261 50.93 30.891 50.65C30.831 50.6 30.801 50.59 30.741 50.63L30.241 50.99ZM35.091 51.77C35.811 52.21 36.531 52.78 37.131 53.4C37.181 53.45 37.221 53.48 37.261 53.48C37.301 53.48 37.331 53.45 37.381 53.4C37.521 53.25 37.851 52.85 38.001 52.65C38.041 52.6 38.061 52.56 38.061 52.52C38.061 52.48 38.031 52.44 37.971 52.38C37.401 51.84 36.571 51.23 36.061 50.96C36.011 50.93 35.971 50.91 35.931 50.91C35.881 50.91 35.831 50.94 35.791 50.99C35.601 51.19 35.311 51.5 35.091 51.77ZM35.311 56.76C35.551 57.18 35.861 57.59 36.111 57.87C36.171 57.94 36.231 57.98 36.281 57.98C36.341 57.98 36.401 57.94 36.461 57.88C36.551 57.79 36.681 57.69 37.131 57.42C38.481 56.67 39.321 56.11 40.151 55.46C41.061 54.76 41.921 53.96 42.451 53.34C42.561 53.21 42.611 53.13 42.611 53.04C42.611 52.98 42.591 52.92 42.561 52.85C42.431 52.52 42.341 52.18 42.281 51.68C41.431 52.77 40.761 53.41 39.541 54.4C38.531 55.21 37.881 55.63 36.661 56.26C36.131 56.53 35.821 56.62 35.311 56.76ZM48.921 51.43C48.921 50.87 48.921 50.62 48.991 50.49C49.041 50.4 49.071 50.32 49.071 50.26C49.071 50.18 49.021 50.12 48.881 50.09C48.591 50.01 48.091 49.96 47.631 49.93C47.701 50.33 47.731 50.66 47.731 51.41V56.33C47.731 56.97 47.721 57.56 47.691 58.3C47.691 58.42 47.741 58.45 47.881 58.45C48.171 58.47 48.481 58.47 48.771 58.45C48.911 58.45 48.961 58.42 48.951 58.3C48.931 57.58 48.911 56.99 48.911 56.34V54.13C49.721 54.38 50.621 54.82 51.541 55.41C51.581 55.45 51.621 55.46 51.651 55.46C51.701 55.46 51.741 55.42 51.781 55.35C51.921 55.12 52.081 54.81 52.211 54.48C52.261 54.35 52.211 54.28 52.101 54.22C51.111 53.63 50.141 53.24 48.921 52.86V51.43ZM56.591 50.38C56.591 50.8 56.541 51.13 56.411 51.87C56.181 53.16 56.071 54.25 56.071 55.15C56.071 56.16 56.251 57.43 56.531 58.13C56.551 58.2 56.591 58.25 56.661 58.24C56.951 58.21 57.231 58.15 57.481 58.08C57.571 58.06 57.611 58.02 57.611 57.95C57.611 57.87 57.591 57.79 57.591 57.67C57.591 57.53 57.601 57.42 57.621 57.36C57.771 56.8 57.961 56.37 58.191 55.85C58.221 55.8 58.241 55.76 58.241 55.69C58.241 55.65 58.201 55.59 58.171 55.54C58.031 55.32 57.901 55.16 57.821 54.91C57.531 55.61 57.351 55.94 57.141 56.4C57.101 56.05 57.081 55.72 57.081 55.23C57.081 54.47 57.221 53.24 57.501 52C57.591 51.61 57.641 51.47 57.741 51.29C57.871 51.09 57.891 51.06 57.891 50.99C57.891 50.9 57.831 50.84 57.661 50.75C57.361 50.59 57.041 50.49 56.591 50.38ZM58.891 55.54C58.891 56.01 58.991 56.52 59.241 56.84C59.671 57.43 60.361 57.67 61.841 57.67C62.311 57.67 62.791 57.64 63.471 57.56C63.641 57.54 63.641 57.53 63.641 57.41C63.641 57.15 63.611 56.76 63.581 56.55C63.561 56.42 63.541 56.41 63.441 56.42C62.771 56.5 62.281 56.55 61.531 56.55C60.441 56.55 59.961 56.3 59.901 55.61C59.901 55.5 59.881 55.45 59.801 55.46L58.891 55.54ZM59.211 52.7C60.161 52.53 60.811 52.47 61.481 52.47C61.991 52.47 62.511 52.49 63.111 52.53C63.201 52.54 63.231 52.5 63.241 52.41C63.261 52.13 63.261 51.86 63.261 51.56C63.261 51.46 63.241 51.44 63.031 51.43C62.611 51.39 62.151 51.37 61.551 51.37C61.091 51.37 59.971 51.44 59.381 51.55C59.281 51.57 59.251 51.6 59.241 51.72C59.221 51.89 59.221 52.14 59.211 52.7ZM21.5702 65.46C20.9102 66.11 19.9902 66.65 18.7702 67.02C18.9202 67.17 19.0402 67.34 19.1402 67.55C19.2302 67.72 19.2602 67.79 19.3402 67.79C19.3902 67.79 19.4602 67.76 19.5802 67.72C20.9902 67.18 22.0602 66.44 22.8002 65.46H24.0802C24.8002 66.44 25.9102 67.22 27.3302 67.74C27.4402 67.78 27.5202 67.81 27.5702 67.81C27.6502 67.81 27.6802 67.74 27.7502 67.55C27.8402 67.3 27.9702 67.07 28.1102 66.9C26.8902 66.59 25.9202 66.1 25.2402 65.46H26.4702C27.3702 65.46 27.6702 65.48 27.7302 65.48C27.8402 65.48 27.8502 65.47 27.8502 65.37V64.69C27.8502 64.59 27.8402 64.58 27.7302 64.58C27.6702 64.58 27.3702 64.6 26.4702 64.6H23.3302L23.4802 64.27C23.5602 64.07 23.6002 63.95 23.6502 63.87C24.3502 63.83 25.0502 63.78 25.7502 63.72C25.9302 63.91 26.1102 64.12 26.3002 64.33C26.3402 64.37 26.3602 64.39 26.3902 64.39C26.4202 64.39 26.4602 64.37 26.5202 64.33L27.0702 63.96C27.1902 63.88 27.2002 63.85 27.1302 63.77C26.4902 63.1 25.8502 62.56 25.1402 62.06C25.0402 61.99 25.0102 62 24.9002 62.07L24.4102 62.35C24.2802 62.43 24.2802 62.46 24.3702 62.52C24.5802 62.67 24.7902 62.83 24.9902 63C24.2102 63.05 23.3402 63.09 22.4502 63.11C22.6502 62.84 22.7702 62.66 22.9302 62.4C23.0002 62.26 23.0802 62.16 23.1702 62.09C23.2202 62.05 23.2902 62 23.2902 61.93C23.2902 61.88 23.2402 61.82 23.1502 61.79C22.8802 61.71 22.5402 61.63 22.2002 61.56C22.1502 61.74 22.1002 61.86 22.0002 62.04C21.8202 62.39 21.6202 62.71 21.3002 63.14H20.9402C20.6302 63.15 20.3202 63.15 19.8902 63.12C19.9302 63.41 19.9802 63.7 20.0402 63.97C20.0702 64.05 20.1002 64.12 20.1602 64.12C20.2202 64.12 20.2602 64.1 20.3202 64.07C20.4002 64.03 20.5502 64.01 20.9002 64C21.4802 63.98 22.0402 63.95 22.5902 63.92C22.5602 64.01 22.5102 64.1 22.4602 64.22C22.4002 64.35 22.3302 64.48 22.2502 64.6H20.4302C19.5302 64.6 19.2302 64.58 19.1702 64.58C19.0702 64.58 19.0602 64.59 19.0602 64.69V65.37C19.0602 65.47 19.0702 65.48 19.1702 65.48C19.2302 65.48 19.5302 65.46 20.4302 65.46H21.5702ZM20.3502 69.98C20.4702 70.11 20.5802 70.29 20.6902 70.56C20.8002 70.83 20.8102 70.83 21.1002 70.8C23.3202 70.51 24.8402 69.96 26.2602 68.81C26.4602 68.66 26.5802 68.6 26.6702 68.58C26.7802 68.56 26.8302 68.5 26.8302 68.45C26.8302 68.39 26.8002 68.34 26.7202 68.28C26.4802 68.1 26.2302 67.94 25.9502 67.78C25.8302 67.96 25.6602 68.12 25.4602 68.27C24.1002 69.27 22.5702 69.77 20.3502 69.98ZM20.3502 68.73C20.4602 68.84 20.5902 69.06 20.6802 69.27C20.7902 69.52 20.8102 69.54 21.0902 69.48C22.7102 69.17 24.0702 68.55 24.9602 67.78C25.1202 67.65 25.2202 67.61 25.3202 67.58C25.4102 67.56 25.4602 67.49 25.4602 67.43C25.4602 67.38 25.4402 67.33 25.3602 67.27C25.1802 67.13 24.9102 66.94 24.6702 66.8C24.5802 66.92 24.4502 67.07 24.2802 67.2C23.2802 67.99 22.0802 68.48 20.3502 68.73ZM20.2402 67.57C20.3402 67.65 20.5402 67.84 20.6502 68.03C20.7802 68.25 20.7802 68.26 21.0502 68.19C22.0702 67.93 23.0402 67.39 23.7402 66.83C23.8902 66.71 23.9702 66.66 24.0902 66.63C24.1702 66.61 24.2602 66.56 24.2602 66.5C24.2602 66.44 24.2302 66.39 24.1502 66.32C24.0102 66.21 23.7002 66 23.4402 65.84C23.3402 65.99 23.1802 66.15 23.0202 66.29C22.4202 66.82 21.4702 67.3 20.2402 67.57ZM38.2002 65.02C38.2002 63.47 38.2202 62.92 38.2202 62.86C38.2202 62.76 38.2102 62.75 38.1102 62.75C38.0502 62.75 37.8002 62.77 37.0702 62.77H35.8002C35.0702 62.77 34.8202 62.75 34.7602 62.75C34.6502 62.75 34.6402 62.76 34.6402 62.86C34.6402 62.93 34.6602 63.48 34.6602 65.31V67.13C34.6602 69.77 34.6402 70.3 34.6402 70.36C34.6402 70.47 34.6502 70.48 34.7602 70.48H35.5702C35.6802 70.48 35.6902 70.47 35.6902 70.36V69.6H37.1702V70.28C37.1702 70.39 37.1802 70.4 37.2702 70.4H38.1102C38.2102 70.4 38.2202 70.39 38.2202 70.28C38.2202 70.22 38.2002 69.7 38.2002 67.09V65.02ZM37.1702 63.73V68.65H35.6902V63.73H37.1702ZM32.9702 64.58C32.9402 66.55 32.8502 67.99 32.7102 68.86C32.6302 69.37 32.5102 69.48 32.2302 69.48C31.9602 69.48 31.7102 69.46 31.4002 69.4C31.4902 69.62 31.5502 69.86 31.5802 70.12C31.6102 70.44 31.6102 70.44 31.8702 70.46C32.0602 70.48 32.2202 70.48 32.4202 70.48C33.1702 70.48 33.5602 70.14 33.6902 69.36C33.8702 68.26 33.9602 66.67 33.9802 64.7C33.9802 64.38 33.9802 64.09 34.0002 63.75C34.0002 63.65 33.9802 63.64 33.8802 63.64C33.8202 63.64 33.5302 63.65 32.6702 63.65H32.0202C32.0302 63.46 32.0302 63.27 32.0302 63.07C32.0302 62.46 32.0502 62.21 32.0802 62.08C32.1002 61.98 32.1502 61.87 32.1502 61.8C32.1502 61.75 32.1002 61.71 32.0002 61.69C31.6402 61.66 31.2802 61.64 30.9202 61.63C30.9702 62.11 30.9902 62.42 30.9902 63.04C30.9902 63.26 30.9902 63.46 30.9802 63.65H30.8202C29.9702 63.65 29.6802 63.64 29.6202 63.64C29.5202 63.64 29.5102 63.64 29.5102 63.74V64.49C29.5102 64.59 29.5202 64.6 29.6202 64.6C29.6802 64.6 29.9702 64.58 30.8202 64.58H30.9502C30.9002 65.57 30.7902 66.35 30.5802 67.11C30.3102 68.12 29.9302 68.86 29.2502 69.66C29.4702 69.84 29.6802 70.06 29.8802 70.37C29.9602 70.49 30.0002 70.54 30.0502 70.54C30.1002 70.54 30.1502 70.48 30.2402 70.37C30.9302 69.48 31.3202 68.51 31.5802 67.48C31.7902 66.65 31.9202 65.67 31.9902 64.58H32.9702ZM44.4202 63.45C43.2202 63.52 41.9302 63.6 41.3202 63.65C40.7902 63.69 40.4702 63.73 40.1002 63.69C40.1802 64.1 40.2702 64.5 40.3502 64.7C40.3802 64.8 40.4202 64.84 40.5202 64.84C40.6102 64.84 40.7702 64.75 40.9902 64.72C41.7802 64.61 43.1902 64.49 44.4502 64.42C44.4502 64.75 44.4602 65.09 44.4602 65.44C44.3002 65.3 44.0002 65.24 43.7002 65.24C42.8902 65.24 42.1902 65.81 42.1902 66.74C42.1902 67.7 42.7902 68.27 43.5802 68.27C43.9102 68.27 44.3202 68.16 44.5202 67.87C44.3402 68.71 43.6402 69.55 42.4702 70.07C42.7302 70.15 43.0002 70.28 43.2302 70.47C43.3302 70.55 43.4402 70.62 43.5302 70.62C43.6202 70.62 43.7502 70.54 43.9202 70.43C45.2302 69.57 45.7002 68.36 45.7002 67.2C45.7002 66.87 45.6502 66.48 45.5502 66.21C45.5402 65.6 45.5402 64.96 45.5402 64.35C46.5802 64.34 47.5502 64.34 48.5902 64.37C48.7102 64.38 48.7602 64.35 48.7602 64.24C48.7702 63.99 48.7702 63.73 48.7602 63.48C48.7502 63.35 48.7302 63.33 48.6102 63.33C47.6502 63.33 46.6202 63.34 45.5402 63.38C45.5502 63 45.5502 62.87 45.5602 62.74C45.5802 62.61 45.6102 62.51 45.6402 62.45C45.7002 62.35 45.7302 62.3 45.7302 62.22C45.7302 62.13 45.6202 62.06 45.4502 62.03C45.2102 61.98 44.7302 61.92 44.2802 61.89C44.3602 62.19 44.3802 62.33 44.4002 62.62C44.4102 62.89 44.4102 63.14 44.4202 63.45ZM43.7802 66.02C44.1802 66.02 44.4402 66.25 44.4402 66.66C44.4402 67.12 44.1302 67.35 43.7602 67.35C43.4002 67.35 43.1202 67.11 43.1202 66.67C43.1202 66.23 43.4702 66.02 43.7802 66.02ZM53.9198 65.78C54.6798 65.05 55.3498 64.35 56.0798 63.64C56.2698 63.47 56.3498 63.4 56.5198 63.32C56.6298 63.27 56.6898 63.18 56.6898 63.08C56.6898 63 56.6598 62.93 56.5798 62.84C56.4098 62.63 56.2098 62.43 55.9098 62.2C55.8398 62.15 55.7798 62.12 55.6798 62.12C55.6298 62.12 55.5398 62.17 55.4898 62.2C55.3898 62.25 55.1898 62.3 54.9398 62.35C54.1598 62.5 53.2798 62.63 52.6698 62.69C52.3698 62.71 52.0398 62.71 51.7398 62.67C51.8798 63.24 51.9698 63.52 52.0898 63.75C52.1398 63.87 52.2098 63.92 52.3098 63.92C52.3598 63.92 52.4598 63.89 52.5098 63.87C52.6698 63.81 52.7998 63.78 52.9298 63.75C53.5498 63.62 54.2598 63.48 54.8598 63.37C54.3998 63.94 53.9298 64.44 53.3098 65.08C52.4098 66.02 51.7198 66.66 50.9398 67.29C50.8598 67.37 50.8298 67.44 50.8898 67.52C51.0498 67.73 51.2698 67.99 51.4798 68.17C51.5398 68.23 51.5898 68.26 51.6298 68.26C51.6798 68.26 51.7298 68.22 51.7998 68.15C52.0998 67.85 52.3798 67.56 52.6698 67.3C53.4798 66.61 54.3998 66.24 55.2298 66.24C56.1598 66.24 56.7998 66.84 56.7998 67.75C56.7998 68.51 56.4798 68.95 55.7798 69.27C55.5298 68.31 54.8398 67.81 53.8998 67.81C53.1198 67.81 52.4898 68.36 52.4898 69.03C52.4898 69.96 53.2498 70.5 54.5098 70.5C56.6498 70.5 57.9998 69.43 57.9998 67.76C57.9998 66.32 56.9798 65.36 55.5198 65.36C54.9598 65.36 54.4898 65.49 53.9298 65.81L53.9198 65.78ZM54.7898 69.52C54.6398 69.55 54.5098 69.56 54.3298 69.56C53.7298 69.56 53.4598 69.35 53.4598 69.04C53.4598 68.83 53.6498 68.66 53.9398 68.66C54.3598 68.66 54.6598 68.97 54.7898 69.52Z" fill="white"/>
</g>
<defs>
<filter id="filter0_d_755_1581" x="0" y="1.5448" width="78" height="98.4552" filterUnits="userSpaceOnUse" color-interpolation-filters="sRGB">
<feFlood flood-opacity="0" result="BackgroundImageFix"/>
<feColorMatrix in="SourceAlpha" type="matrix" values="0 0 0 0 0 0 0 0 0 0 0 0 0 0 0 0 0 0 127 0" result="hardAlpha"/>
<feOffset dy="1"/>
<feGaussianBlur stdDeviation="2"/>
<feComposite in2="hardAlpha" operator="out"/>
<feColorMatrix type="matrix" values="0 0 0 0 0 0 0 0 0 0 0 0 0 0 0 0 0 0 0.15 0"/>
<feBlend mode="normal" in2="BackgroundImageFix" result="effect1_dropShadow_755_1581"/>
<feBlend mode="normal" in="SourceGraphic" in2="effect1_dropShadow_755_1581" result="shape"/>
</filter>
</defs>
</svg>
