<svg width="38" height="38" viewBox="0 0 38 38" fill="none" xmlns="http://www.w3.org/2000/svg">
<mask id="mask0_757_1590" style="mask-type:alpha" maskUnits="userSpaceOnUse" x="0" y="0" width="38" height="38">
<rect width="38" height="38" fill="white"/>
</mask>
<g mask="url(#mask0_757_1590)">
<path d="M6.33335 31.6667C5.46252 31.6667 4.7173 31.3569 4.09769 30.7373C3.47702 30.1166 3.16669 29.3708 3.16669 28.5V22.1667C4.03752 22.1667 4.78327 21.8563 5.40394 21.2357C6.02355 20.6161 6.33335 19.8708 6.33335 19C6.33335 18.1292 6.02355 17.3834 5.40394 16.7628C4.78327 16.1431 4.03752 15.8333 3.16669 15.8333V9.50001C3.16669 8.62918 3.47702 7.88395 4.09769 7.26434C4.7173 6.64368 5.46252 6.33334 6.33335 6.33334H31.6667C32.5375 6.33334 33.2833 6.64368 33.9039 7.26434C34.5235 7.88395 34.8334 8.62918 34.8334 9.50001V15.8333C33.9625 15.8333 33.2168 16.1431 32.5961 16.7628C31.9765 17.3834 31.6667 18.1292 31.6667 19C31.6667 19.8708 31.9765 20.6161 32.5961 21.2357C33.2168 21.8563 33.9625 22.1667 34.8334 22.1667V28.5C34.8334 29.3708 34.5235 30.1166 33.9039 30.7373C33.2833 31.3569 32.5375 31.6667 31.6667 31.6667H6.33335ZM19 26.9167C19.4486 26.9167 19.8249 26.7647 20.1289 26.4607C20.4319 26.1577 20.5834 25.782 20.5834 25.3333C20.5834 24.8847 20.4319 24.5084 20.1289 24.2044C19.8249 23.9015 19.4486 23.75 19 23.75C18.5514 23.75 18.1756 23.9015 17.8727 24.2044C17.5687 24.5084 17.4167 24.8847 17.4167 25.3333C17.4167 25.782 17.5687 26.1577 17.8727 26.4607C18.1756 26.7647 18.5514 26.9167 19 26.9167ZM19 20.5833C19.4486 20.5833 19.8249 20.4313 20.1289 20.1273C20.4319 19.8244 20.5834 19.4486 20.5834 19C20.5834 18.5514 20.4319 18.1751 20.1289 17.8711C19.8249 17.5681 19.4486 17.4167 19 17.4167C18.5514 17.4167 18.1756 17.5681 17.8727 17.8711C17.5687 18.1751 17.4167 18.5514 17.4167 19C17.4167 19.4486 17.5687 19.8244 17.8727 20.1273C18.1756 20.4313 18.5514 20.5833 19 20.5833ZM19 14.25C19.4486 14.25 19.8249 14.098 20.1289 13.794C20.4319 13.4911 20.5834 13.1153 20.5834 12.6667C20.5834 12.2181 20.4319 11.8418 20.1289 11.5378C19.8249 11.2348 19.4486 11.0833 19 11.0833C18.5514 11.0833 18.1756 11.2348 17.8727 11.5378C17.5687 11.8418 17.4167 12.2181 17.4167 12.6667C17.4167 13.1153 17.5687 13.4911 17.8727 13.794C18.1756 14.098 18.5514 14.25 19 14.25Z" fill="white"/>
</g>
</svg>
