<svg width="183" height="170" viewBox="0 0 183 170" fill="none" xmlns="http://www.w3.org/2000/svg">
<path fill-rule="evenodd" clip-rule="evenodd" d="M98 170C144.944 170 183 131.944 183 85C183 38.0558 144.944 0 98 0C51.0558 0 13 38.0558 13 85C13 131.944 51.0558 170 98 170ZM98 160C139.421 160 173 126.421 173 85C173 43.5786 139.421 10 98 10C56.5786 10 23 43.5786 23 85C23 126.421 56.5786 160 98 160Z" fill="white" fill-opacity="0.9"/>
<circle cx="98" cy="85" r="55" fill="white" fill-opacity="0.9"/>
<path d="M131.661 30.6656C134.336 26.2163 141.281 24.0693 147.171 28.234" stroke="#77C1D2" stroke-width="3" stroke-miterlimit="10" stroke-linecap="round"/>
<path d="M117 29.7859C121.553 25.854 127.983 26.6559 131.378 30.6913" stroke="#77C1D2" stroke-width="3" stroke-miterlimit="10" stroke-linecap="round"/>
<path d="M150.343 47.2699C154.87 44.2951 159.885 46.2352 161.531 49.4687" stroke="#77C1D2" stroke-width="3" stroke-miterlimit="10" stroke-linecap="round"/>
<path d="M139 44.1911C144.221 41.2939 149.16 44.1911 150.06 47.4505" stroke="#77C1D2" stroke-width="3" stroke-miterlimit="10" stroke-linecap="round"/>
<path d="M116 125.701C116.552 125.701 117 125.253 117 124.701C117 124.149 116.552 123.701 116 123.701C115.448 123.701 115 124.149 115 124.701C115 125.253 115.448 125.701 116 125.701Z" fill="white"/>
<path d="M113 123.701C113 124.273 113 125.106 113 125.701" stroke="white" stroke-width="0.3" stroke-miterlimit="10" stroke-linecap="round"/>
<path d="M113 123.701C113 124.273 113 125.106 113 125.701" stroke="white" stroke-width="0.3" stroke-miterlimit="10" stroke-linecap="round"/>
<path d="M31.4104 129.095C31.1083 128.845 30.7558 128.47 30.4034 128.145C30.2523 127.995 30.1013 127.92 30.1013 127.695C30.1013 127.47 30.4034 127.47 30.6299 127.42C31.0579 127.295 31.4356 127.195 31.8635 127.07C32.3671 126.92 32.795 126.671 33.2734 126.421C34.1545 125.971 35.2371 125.296 36.2189 124.471C37.4777 123.422 38.5603 122.372 39.4918 121.173C39.7687 120.823 40.0456 120.473 40.247 120.148C39.1645 120.148 38.0819 120.198 36.9994 120.248C36.0679 120.298 35.2119 120.348 34.3559 120.448C34.0035 120.498 33.7265 120.523 33.5 120.548C33.2734 120.548 33.1475 120.623 32.9461 120.598C32.7699 120.598 32.7447 120.398 32.7699 120.098C32.8202 119.548 32.7699 119.048 32.7699 118.448C32.7699 118.224 32.7699 118.049 32.9209 117.999C33.072 117.949 33.2482 118.049 33.5251 118.049C33.8524 118.049 34.0538 118.124 34.3811 118.124C34.6329 118.124 34.8343 118.124 35.0609 118.124C35.8413 118.124 36.5966 118.124 37.3267 118.124C38.0567 118.124 39.2904 118.174 40.2218 118.124C40.5743 118.124 40.8764 118.074 41.103 117.999C41.4555 117.874 41.6317 117.599 41.9086 117.599C42.1855 117.599 42.2107 117.699 42.3869 117.849C42.7394 118.124 42.9912 118.373 43.3436 118.673C43.545 118.873 43.6961 119.098 43.6961 119.298C43.6961 119.498 43.2933 119.673 43.0163 119.998C42.7142 120.348 42.387 120.648 42.1604 120.973C41.9086 121.322 41.6065 121.647 41.3547 121.972C41.0023 122.447 40.5743 122.997 40.0456 123.547C40.675 124.296 41.2037 124.821 41.8331 125.321C42.5128 125.871 43.2681 126.321 43.9982 126.696C44.401 126.895 44.8542 127.07 45.257 127.17C45.408 127.22 45.836 127.295 45.836 127.47C45.836 127.645 45.5843 127.945 45.3073 128.22C45.0052 128.545 44.8542 128.72 44.4765 129.07C44.0989 129.42 44.1996 129.37 44.0234 129.37C43.8723 129.37 43.5199 129.17 43.0163 128.87C42.4121 128.52 41.8583 128.095 41.2037 127.52C40.4988 126.92 39.8946 126.271 39.4918 125.821C39.2904 125.571 39.0134 125.271 38.6861 124.846C37.9057 125.596 37.0245 126.296 36.0931 127.045C35.086 127.82 34.0287 128.52 32.7195 129.095C32.5433 129.17 32.065 129.395 31.8635 129.395C31.6621 129.395 31.6118 129.22 31.4104 129.045V129.095Z" fill="#F8B616"/>
<path d="M52.8599 130.07C52.5075 129.645 52.2557 129.42 51.9033 129.02C51.7774 128.895 51.576 128.82 51.576 128.646C51.576 128.471 51.9033 128.471 52.004 128.446C52.3816 128.346 52.7844 128.221 53.162 128.096C55.302 127.321 57.3664 125.996 58.751 124.172C58.1468 123.722 57.4922 123.322 56.8125 122.997C56.5104 122.848 56.2586 122.798 56.2586 122.673C56.2586 122.573 56.3342 122.448 56.4601 122.323C56.7118 122.073 56.888 121.823 57.0894 121.623C57.165 121.523 57.3412 121.373 57.4923 121.373C57.6433 121.373 57.744 121.423 57.9202 121.498C58.5496 121.748 59.5818 122.348 59.9091 122.548C60.186 122.073 60.4378 121.573 60.6644 121.048C60.8658 120.598 60.9917 120.124 61.1679 119.674C59.9091 119.674 58.6755 119.724 57.4167 119.824C56.9636 120.473 56.4601 121.148 55.9565 121.748C55.7048 122.048 54.7985 123.047 54.1942 123.547C53.9677 123.697 53.7914 123.822 53.6907 123.822C53.59 123.822 53.4138 123.672 53.2124 123.522C52.9355 123.347 52.583 123.147 52.4571 123.047C52.3061 122.948 52.004 122.823 52.004 122.648C52.004 122.473 52.2557 122.398 52.3564 122.298C53.7411 121.373 54.8992 120.099 55.8055 118.724C56.309 117.974 56.9636 116.675 57.165 115.825C57.165 115.75 57.165 115.5 57.2153 115.35C57.2657 115.125 57.2908 115.125 57.5678 115.125C57.8447 115.125 57.8447 115.175 58.0461 115.225C58.3734 115.275 58.7007 115.375 59.0531 115.475C59.3049 115.525 59.5315 115.6 59.5315 115.725C59.5315 115.9 59.4308 116.075 59.3552 116.275C59.2797 116.475 59.1538 116.675 59.0531 116.875C58.8769 117.275 58.7007 117.674 58.4993 118.049C59.3552 118.049 60.1609 117.999 60.9917 117.949C61.2434 117.949 61.6462 117.899 61.8476 117.724C61.9987 117.624 62.1749 117.374 62.3511 117.374C62.5274 117.374 62.6532 117.424 62.8043 117.574C63.2071 117.924 63.6603 118.299 63.8617 118.499C64.0127 118.674 64.2141 118.774 64.2141 119.049C64.2141 119.324 63.8113 119.424 63.6603 119.599C63.5596 119.699 63.2826 120.124 63.0561 120.673C62.6029 121.723 62.1497 122.698 61.6714 123.597C62.2253 123.972 62.7791 124.422 63.3078 124.847C63.4337 124.972 63.6603 125.122 63.6603 125.272C63.6603 125.422 63.5092 125.622 63.4085 125.747C63.2071 125.971 62.9554 126.296 62.6784 126.571C62.4015 126.846 62.4267 126.821 62.3511 126.821C62.2001 126.821 62.0742 126.671 61.9735 126.571C61.5203 126.121 61.042 125.772 60.5888 125.397C59.1035 127.246 56.9384 128.945 54.7985 129.97C54.5971 130.07 54.1943 130.27 53.8418 130.395C53.6656 130.47 53.5397 130.52 53.3635 130.52C53.1872 130.52 53.0865 130.37 52.9103 130.17L52.8599 130.07Z" fill="#F8B616"/>
<path d="M77.0789 120.723C76.6006 120.523 75.9208 120.249 75.4173 120.024C74.6117 119.674 73.7557 119.424 72.925 119.174C72.8242 119.124 72.3711 119.049 72.3711 118.899C72.3711 118.749 72.4214 118.649 72.497 118.449C72.648 118.049 72.8746 117.599 72.9753 117.375C73.0257 117.25 73.1515 117.025 73.2774 117.025C73.4285 117.025 73.504 117.025 73.655 117.075C74.6621 117.325 76.9279 118.149 77.6076 118.374L78.1363 118.599C78.2622 118.649 78.2874 118.724 78.2874 118.824C78.2874 118.924 78.2118 119.074 78.1363 119.299C77.9852 119.699 77.8342 120.249 77.7083 120.523C77.6328 120.673 77.5824 120.873 77.4566 120.873C77.3055 120.873 77.2552 120.798 77.1041 120.723H77.0789ZM73.3026 129.07C73.1515 128.771 72.9753 128.371 72.8494 127.971C72.7487 127.746 72.6984 127.596 72.6984 127.446C72.6984 127.321 72.7991 127.296 72.9753 127.246L73.6299 127.096C75.1404 126.696 76.5251 126.071 77.8845 125.272C80.0496 123.972 81.963 122.298 83.5742 120.323C83.6246 120.249 83.826 119.999 83.977 119.824C84.1029 119.674 84.1533 119.549 84.3043 119.549C84.4554 119.549 84.5561 119.824 84.6316 119.949C84.7827 120.298 84.9841 120.698 85.1855 121.098C85.261 121.298 85.3365 121.448 85.3365 121.523C85.3365 121.773 85.0848 122.023 84.9589 122.173C83.0707 124.322 80.7797 126.071 78.2874 127.471C77.2803 128.021 76.2733 128.596 75.1908 129.02C74.9894 129.095 74.5362 129.27 74.1837 129.395C74.0075 129.445 73.8313 129.495 73.7306 129.495C73.5292 129.495 73.4285 129.195 73.3781 129.045L73.3026 129.07Z" fill="#F8B616"/>
<path d="M93.6192 128.87C93.2416 128.57 92.864 128.245 92.6878 128.095C92.4108 127.87 92.2094 127.745 92.2094 127.52C92.2094 127.295 92.4612 127.37 92.7633 127.295C93.015 127.221 93.292 127.171 93.3675 127.146C94.299 126.896 95.2053 126.646 96.0613 126.271C99.0823 124.946 100.945 122.447 101.978 119.398C100.492 119.398 98.9816 119.398 97.4963 119.398C96.0109 119.398 95.2305 119.548 94.1228 119.598C93.7451 119.598 93.0654 119.748 92.864 119.748C92.6877 119.748 92.6878 119.673 92.6878 119.473V117.699C92.6878 117.449 92.6877 117.299 92.9898 117.274C93.3675 117.274 94.1731 117.399 94.7521 117.424C95.8347 117.474 96.9424 117.424 98.025 117.424C99.1075 117.424 100.467 117.424 101.675 117.424C102.884 117.424 102.204 117.424 102.456 117.374C102.607 117.324 102.808 117.324 102.959 117.224C103.161 117.124 103.337 116.949 103.513 116.949C103.689 116.949 103.765 117.049 103.966 117.224C104.319 117.524 104.571 117.774 104.822 118.049C104.973 118.224 105.074 118.324 105.074 118.424C105.074 118.649 104.822 118.823 104.671 118.973C104.319 119.348 104.067 119.773 103.891 120.223C102.33 124.172 100.115 126.971 96.1368 128.745C95.9102 128.845 95.3815 129.07 94.9284 129.195C94.6766 129.27 94.45 129.345 94.3242 129.345C94.1983 129.345 93.9717 129.145 93.6192 128.87ZM104.495 115.2C104.495 114.2 105.276 113.4 106.308 113.4C107.34 113.4 108.271 114.25 108.271 115.35C108.271 116.449 107.491 117.174 106.459 117.174C105.427 117.174 104.495 116.299 104.495 115.225V115.2ZM107.34 115.325C107.34 114.775 106.887 114.35 106.333 114.35C105.779 114.35 105.452 114.75 105.452 115.25C105.452 115.75 105.905 116.249 106.459 116.249C107.013 116.249 107.34 115.825 107.34 115.325Z" fill="#F8B616"/>
<path d="M114.691 129.969C114.339 129.645 113.835 129.22 113.508 128.945C113.357 128.845 113.181 128.745 113.181 128.57C113.181 128.395 113.583 128.32 113.709 128.32C115.245 127.97 116.781 127.57 118.165 126.771C120.028 125.721 121.136 124.346 122.143 122.522C121.287 122.522 120.482 122.572 119.651 122.572C118.493 122.572 117.335 122.647 116.176 122.722C115.295 122.772 114.439 122.847 113.508 122.947C113.332 122.947 113.055 123.047 112.878 123.022C112.602 123.022 112.602 122.872 112.602 122.647V121.098C112.602 120.873 112.602 120.648 112.778 120.648C112.954 120.648 113.181 120.723 113.609 120.748C113.886 120.748 114.188 120.798 114.49 120.798C115.774 120.798 117.058 120.748 118.316 120.698C119.474 120.648 120.607 120.648 121.74 120.648C122.873 120.648 122.395 120.598 122.722 120.548C122.873 120.548 123.1 120.448 123.251 120.348C123.402 120.223 123.553 120.073 123.654 120.073C123.754 120.073 123.905 120.148 124.107 120.323C124.459 120.573 124.787 120.873 125.139 121.198C125.491 121.522 125.391 121.472 125.391 121.647C125.391 121.822 125.215 121.897 125.038 122.072C124.887 122.197 124.787 122.322 124.686 122.422C124.258 122.997 123.931 123.697 123.553 124.296C122.546 125.946 121.564 127.07 120.003 128.245C119.072 128.945 117.788 129.645 116.705 130.044C116.479 130.119 116.076 130.244 115.723 130.319C115.522 130.369 115.346 130.394 115.22 130.394C114.993 130.394 114.817 130.169 114.666 130.044L114.691 129.969ZM114.439 118.324C114.439 118.149 114.439 117.299 114.439 116.874C114.439 116.449 114.439 116.499 114.691 116.499C114.943 116.499 115.295 116.549 115.547 116.549C115.95 116.549 116.353 116.549 116.756 116.549C117.385 116.599 118.014 116.599 118.619 116.599C119.827 116.599 121.035 116.524 122.244 116.524C122.596 116.524 122.999 116.474 123.326 116.424C123.477 116.424 123.654 116.374 123.805 116.374C123.956 116.374 124.056 116.424 124.056 116.574C124.056 116.724 123.956 116.999 123.905 117.349C123.805 117.749 123.729 118.199 123.704 118.324C123.628 118.548 123.654 118.673 123.377 118.673C122.999 118.673 122.571 118.623 122.193 118.623C121.186 118.573 120.179 118.573 119.198 118.573C118.216 118.573 117.385 118.623 116.479 118.673C116.126 118.673 115.774 118.673 115.421 118.723C115.245 118.723 114.867 118.773 114.691 118.773C114.515 118.773 114.439 118.673 114.439 118.324Z" fill="#F8B616"/>
<path d="M134.932 124.772C134.932 124.622 134.983 124.372 134.983 124.222C135.033 123.797 135.109 123.373 135.134 122.948C135.184 121.898 135.184 120.898 135.184 119.874C135.184 118.849 135.234 118.124 135.109 117.325C135.058 116.9 134.957 116.675 134.983 116.5C134.983 116.35 135.134 116.3 135.36 116.275C135.864 116.275 136.795 116.2 137.123 116.225C137.299 116.225 137.45 116.275 137.45 116.45C137.45 116.7 137.399 117.125 137.374 117.4C137.299 118.424 137.223 119.449 137.223 120.474C137.223 121.498 137.274 122.548 137.274 123.597C137.274 123.922 137.274 124.347 137.274 124.672C137.274 124.997 137.148 124.947 136.921 124.972C136.468 124.972 135.662 125.022 135.209 125.022C134.756 125.022 134.907 124.972 134.907 124.772H134.932ZM136.468 130.12C136.116 129.77 135.713 129.445 135.411 129.096C135.26 128.946 135.159 128.821 135.159 128.746C135.159 128.596 135.511 128.546 135.587 128.496C136.04 128.321 136.518 128.171 136.921 127.946C137.475 127.596 138.054 127.321 138.507 126.896C139.137 126.321 139.766 125.497 140.018 124.647C140.395 123.298 140.32 121.048 140.32 119.624C140.32 118.199 140.32 117.874 140.244 116.975C140.244 116.725 140.169 116.425 140.169 116.2C140.169 115.925 140.395 115.9 140.622 115.9C141.075 115.9 142.107 115.9 142.384 115.9C142.661 115.9 142.737 115.975 142.737 116.2C142.737 116.525 142.661 116.85 142.636 117.175C142.586 118.199 142.485 119.224 142.485 120.224C142.409 124.572 142.535 126.796 138.608 129.495C138.356 129.67 137.752 130.02 137.274 130.195C137.072 130.27 136.921 130.32 136.871 130.32C136.72 130.32 136.644 130.27 136.493 130.095L136.468 130.12Z" fill="#F8B616"/>
<path d="M152.052 123.522V122.047C152.052 121.747 152.052 121.547 152.304 121.547C152.555 121.547 152.958 121.597 153.235 121.647C153.588 121.647 153.915 121.697 154.292 121.697H161.518C162.651 121.697 163.784 121.647 164.891 121.547C165.194 121.498 165.496 121.423 165.798 121.423C166.1 121.423 165.974 121.522 165.974 121.672C165.974 121.822 165.873 122.072 165.823 122.447C165.773 122.847 165.722 123.197 165.647 123.597C165.596 123.847 165.571 123.897 165.345 123.897C165.118 123.897 165.017 123.897 164.866 123.847C162.676 123.722 160.461 123.672 158.245 123.672C156.03 123.672 156.458 123.672 155.576 123.722C154.695 123.772 153.839 123.797 152.908 123.897C152.757 123.897 152.48 123.972 152.304 123.972C152.127 123.972 152.102 123.822 152.102 123.497L152.052 123.522Z" fill="#F8B616"/>
<path d="M72.3689 57.0832C72.3689 56.3674 72.3689 55.4295 72.4696 54.8124C72.5199 54.4915 72.6206 54.2447 72.7717 54.2447C72.9228 54.2447 73.1997 54.294 73.6025 54.4175C74.4836 54.6396 75.818 55.0839 76.6487 55.4541C77.0767 55.6516 77.3537 55.8244 77.3537 55.9478C77.3537 56.1453 76.9508 56.3427 76.7998 56.4415C76.0949 56.8611 74.4585 57.4781 73.3507 57.7003C73.099 57.7497 72.8472 57.7497 72.671 57.7497C72.3437 57.7497 72.3941 57.3054 72.3689 57.0832ZM74.534 65.9197C74.3074 65.6976 73.7535 64.9571 73.4263 64.3894C73.2249 64.0932 73.1493 63.9451 73.1493 63.6736C73.1493 63.4021 73.7284 63.1552 73.9046 63.0071C74.7102 62.3407 75.5662 61.6496 76.2963 60.8844C76.5984 60.5388 76.9005 60.1933 77.2278 59.8724C77.3285 59.7737 77.4795 59.5515 77.6306 59.3787C77.7565 59.2553 77.8572 59.1319 77.9579 59.1319C78.1089 59.1319 78.2096 59.3047 78.26 59.5268C78.3103 59.8477 78.3103 60.2426 78.3103 60.3907C78.3103 60.7857 78.3103 61.1312 78.2096 61.4521C78.1341 61.773 77.9831 62.0692 77.7816 62.3901C77.5551 62.7603 76.2208 64.7349 75.4151 65.6976C75.2137 65.9691 75.1382 66.1172 74.962 66.1172C74.7857 66.1172 74.6599 66.0431 74.534 65.9197ZM73.7032 50.7644C73.6025 50.715 73.1997 50.5669 73.1997 50.4435C73.1997 50.3201 73.25 50.1967 73.3759 49.9745C73.678 49.4315 74.2067 48.5923 74.6347 48.0986C74.8613 47.8271 75.0627 47.6543 75.1382 47.6543C75.2641 47.6543 75.5158 47.8518 75.8179 48.148C76.4222 48.7897 77.3537 49.9005 77.832 50.6903C78.0838 51.0853 78.1593 51.3815 78.1593 51.5295C78.1593 51.6776 77.7061 51.6776 77.6054 51.6776C76.1956 51.6776 74.9872 51.3321 73.7032 50.7644ZM80.7775 57.8484C80.3496 57.6262 79.8712 57.3794 79.7202 57.2807C79.5691 57.2066 79.1663 57.1326 79.1915 56.8858C79.1915 56.713 79.4936 56.5402 79.6446 56.4415C80.1985 55.9972 80.7272 55.4541 81.13 54.8864C81.986 53.6523 82.5147 52.4428 82.9678 51.0853C82.2125 51.1099 81.4573 51.1099 80.6768 51.1099C79.8964 51.1099 79.5691 51.2333 79.0404 51.2333C78.5117 51.2333 78.7383 50.9618 78.7383 50.6656C78.7383 50.3694 78.7131 49.6536 78.7383 49.1847C78.7383 49.0119 78.688 48.6416 78.9145 48.6416C79.1411 48.6416 79.267 48.691 79.4432 48.691C79.7453 48.691 80.0474 48.691 80.3244 48.691C82.9175 48.691 85.3847 48.7157 87.9778 48.7157C90.5708 48.7157 89.3624 48.6663 90.0673 48.6663C90.6212 48.6663 91.1751 48.5429 91.7289 48.5429C92.2828 48.5429 92.2576 48.5923 92.2576 48.8638C92.2576 49.1353 92.0814 49.5302 92.031 49.8264C91.9303 50.4188 91.7793 51.0112 91.6786 51.6036C91.4772 52.5909 91.3261 53.6276 91.0995 54.6149C90.9485 55.3554 90.8478 56.1206 90.7219 56.8611C90.6967 57.0832 90.6464 57.8237 90.3946 57.8237C90.0925 57.8237 89.8911 57.725 89.589 57.6509C89.161 57.5522 88.7079 57.4535 88.4309 57.3794C88.2295 57.3301 87.7764 57.2807 87.7512 57.0832C87.7512 56.9104 87.9022 56.5896 87.9526 56.4168C88.1036 55.9478 88.2295 55.4295 88.3554 54.9358C88.7079 53.677 88.9344 52.3441 89.1358 51.0359H85.5609C85.2084 52.1466 84.856 53.1339 84.3273 54.22C83.9748 54.9358 83.6727 55.6022 83.1944 56.318C82.8923 56.787 82.565 57.256 82.1118 57.7003C81.9356 57.8484 81.709 58.1693 81.4573 58.1693C81.2055 58.1693 81.0796 57.9965 80.7775 57.8237V57.8484ZM88.8337 66.4381C87.6505 66.364 86.7693 66.4381 85.6113 66.3887C84.3776 66.3393 83.5217 66.3887 82.3133 66.4134C81.8601 66.4134 81.3566 66.4874 80.9034 66.4874C80.4503 66.4874 80.6013 66.0925 80.5761 65.7716C80.5258 64.34 80.4754 62.9084 80.3496 61.5015C80.2992 60.835 80.2489 60.1933 80.1482 59.5515C80.1482 59.3294 80.0475 59.0825 80.0475 58.8604C80.0475 58.6383 80.1985 58.6629 80.3747 58.6629C80.551 58.6629 80.7524 58.6629 80.9538 58.6629C81.8097 58.737 82.6657 58.7617 83.5217 58.7617C85.5357 58.7617 86.9456 58.7617 88.9596 58.7617C89.6645 58.7617 90.4701 58.6136 91.1499 58.6136C91.8296 58.6136 91.5275 58.6383 91.5275 58.8604C91.5275 59.2306 91.4268 59.5762 91.4016 59.9218C91.1499 61.9211 91.024 63.8957 90.8226 65.8704C90.7722 66.2159 90.9233 66.5368 90.4198 66.5368C89.9163 66.5368 89.3624 66.4628 88.8337 66.4381ZM88.6323 64.34C88.6827 63.1799 88.7582 62.1185 88.8841 60.8597C86.7693 60.8844 84.6042 60.8597 82.4895 60.8597C82.565 61.9951 82.6405 63.2046 82.6657 64.34C84.6546 64.2907 86.6434 64.3153 88.6323 64.34Z" fill="#77C1D2"/>
<path d="M103.511 65.4009C103.234 65.1294 102.68 64.3642 102.378 63.7472C102.252 63.5003 102.152 63.2782 102.152 63.1548C102.152 62.9079 102.731 62.6364 102.907 62.4883C103.712 61.8219 104.568 61.2295 105.298 60.4643C105.726 59.9954 105.953 59.7238 106.23 59.403L106.582 58.9093C106.708 58.7612 106.859 58.6131 106.96 58.6131C107.136 58.6131 107.187 58.7859 107.237 59.0327C107.287 59.3536 107.313 59.7238 107.313 59.8719C107.313 60.6371 107.187 61.2295 106.784 61.8713C106.557 62.2662 105.022 64.5123 104.317 65.3022C104.14 65.4997 104.04 65.5984 103.989 65.5984C103.813 65.5984 103.637 65.4997 103.511 65.4009ZM102.303 56.7372C102.252 56.3176 102.277 55.7252 102.277 55.5771C102.277 55.429 102.277 54.9107 102.303 54.491C102.353 54.0714 102.454 53.7259 102.63 53.7259C102.806 53.7259 103.058 53.7999 103.486 53.9233C104.317 54.1455 105.5 54.5404 106.331 54.8613C106.859 55.0834 107.237 55.3056 107.237 55.429C107.237 55.6265 106.834 55.8239 106.683 55.9227C105.953 56.367 104.291 57.0087 103.184 57.1815C102.982 57.2309 102.806 57.2309 102.655 57.2309C102.353 57.2309 102.303 56.984 102.303 56.7372ZM103.435 50.2456C103.335 50.1962 102.982 49.9987 102.982 49.8753C102.982 49.7519 103.058 49.6038 103.234 49.2829C103.511 48.7893 103.964 48.1228 104.317 47.6785C104.568 47.3577 104.77 47.1355 104.871 47.1355C104.971 47.1355 105.298 47.407 105.676 47.802C106.23 48.419 106.96 49.3076 107.413 50.0234C107.69 50.4677 107.892 50.838 107.892 51.0107C107.892 51.1835 107.438 51.1588 107.338 51.1588C105.928 51.1588 104.719 50.8133 103.435 50.2456ZM113.355 67.3509C113.355 67.1041 113.405 66.8079 113.43 66.561C113.481 65.9933 113.506 65.4256 113.556 64.8579C113.581 64.5617 113.581 64.2408 113.606 63.92C112.549 63.92 111.492 63.994 110.434 64.068C109.805 64.068 109.075 64.1915 108.42 64.3396C108.118 64.4136 107.892 64.537 107.615 64.537C107.338 64.537 107.388 64.1915 107.388 63.9693C107.363 63.525 107.388 62.6858 107.388 62.4883C107.388 62.0687 107.363 61.6491 107.564 61.6244C107.741 61.5997 108.043 61.6244 108.244 61.6738C108.571 61.7232 108.924 61.7232 109.251 61.7232C110.183 61.7972 110.988 61.7478 111.869 61.7478H113.657C113.657 61.3036 113.657 60.8346 113.657 60.3903C112.7 60.3903 111.743 60.3903 110.787 60.4643C110.434 60.4643 110.082 60.5631 109.729 60.6124C109.553 60.6371 109.402 60.7605 109.226 60.7605C109.05 60.7605 108.949 60.6865 108.949 60.415V58.6872C108.949 58.4897 108.999 58.3416 109.15 58.3416C109.301 58.3416 109.503 58.4156 109.704 58.4403C109.956 58.465 110.157 58.5144 110.384 58.5144H113.657V57.3296C112.675 57.3543 111.718 57.4036 110.787 57.4777C110.585 57.4777 110.409 57.5517 110.208 57.5517C110.006 57.5517 110.006 57.4777 110.006 57.3049C110.006 57.1321 110.006 56.0461 110.006 55.5524C110.006 55.2809 110.006 55.0834 110.283 55.0834C110.56 55.0834 110.837 55.1328 111.114 55.1575C111.693 55.1575 112.297 55.1822 112.876 55.1822H113.632V53.874C112.952 53.874 112.272 53.874 111.693 53.8987C111.064 53.8987 110.157 53.8987 109.528 53.948C108.848 53.9727 108.546 53.9974 107.766 54.0961C107.665 54.0961 107.413 54.1455 107.287 54.1455C107.061 54.1455 107.111 53.874 107.111 53.7259C107.086 53.1828 107.061 52.862 107.086 52.3189C107.086 52.0968 107.01 51.5785 107.338 51.5785C107.665 51.5785 107.69 51.6278 107.841 51.6525L108.521 51.7266C109.276 51.7266 110.006 51.7759 110.762 51.7759C111.517 51.7759 112.675 51.7512 113.606 51.7759V50.6899H111.24C110.913 50.6899 110.56 50.7392 110.258 50.7392C109.956 50.7392 109.981 50.5665 109.956 50.3443C109.956 49.9741 109.956 49.357 109.931 48.9127C109.931 48.5918 109.931 48.3203 110.082 48.2956C110.258 48.2956 110.661 48.345 110.837 48.3697C111.19 48.3697 111.542 48.419 111.895 48.419C112.423 48.419 113.027 48.4684 113.606 48.4684L113.531 46.9874C113.531 46.7653 113.455 46.5184 113.455 46.2963C113.455 45.9754 113.757 46.0248 114.009 46.0001H115.671C115.973 46.0248 116.325 46.0001 116.325 46.3703C116.325 46.7406 116.275 46.8146 116.25 47.0368L116.174 48.4684C117.131 48.4684 118.113 48.4684 118.994 48.4684C119.598 48.4684 120.202 48.345 120.781 48.345C121.361 48.345 121.134 48.345 121.134 48.6905C121.134 49.3817 121.033 50.0481 121.033 50.7392V51.7019H122.468C122.821 51.7019 123.173 51.6031 123.526 51.5538C123.677 51.5291 123.853 51.4797 124.004 51.4797C124.155 51.4797 124.155 51.4797 124.155 51.6278C124.155 51.9487 124.079 52.2449 124.054 52.5905C124.054 52.862 123.954 53.3063 123.878 53.7999C123.878 54.0221 123.828 54.2442 123.652 54.2442C123.249 54.2442 122.644 54.1208 121.814 54.0468L121.033 53.9727C121.033 54.7379 121.033 55.6758 121.058 56.1942C121.058 56.5151 121.109 56.8359 121.109 57.1321C121.109 57.4283 120.958 57.379 120.781 57.379C120.253 57.379 119.724 57.3049 119.195 57.3049H116.174V58.5391H119.875C120.228 58.5391 120.555 58.5391 120.907 58.4897C121.235 58.465 121.411 58.4156 121.637 58.4156C121.864 58.4156 121.814 58.465 121.814 58.6378L121.763 59.1068C121.713 59.5017 121.612 59.7485 121.562 60.1435C121.486 60.489 121.486 60.7112 121.285 60.7112C121.084 60.7112 120.656 60.6371 120.379 60.6124C119.926 60.5631 119.472 60.5137 119.019 60.5137C118.063 60.4643 117.131 60.415 116.174 60.415V61.7972H117.609C118.742 61.7972 119.875 61.7478 121.033 61.7232C121.512 61.7232 121.99 61.6738 122.468 61.6244C122.745 61.5751 123.022 61.4763 123.299 61.4763C123.576 61.4763 123.601 61.4763 123.601 61.6985C123.601 61.9206 123.526 62.1181 123.475 62.3896C123.375 62.8833 123.274 63.1795 123.224 63.6484C123.173 63.92 123.123 64.2902 122.896 64.2902C122.67 64.2902 122.368 64.1668 121.864 64.1174C120.706 63.994 119.044 63.8953 117.911 63.8953C116.779 63.8953 116.779 63.8953 116.2 63.8953V64.1915C116.2 64.932 116.25 65.6724 116.275 66.4129C116.275 66.6844 116.325 66.956 116.325 67.2275C116.325 67.499 116.124 67.5977 115.772 67.5977H113.757C113.481 67.5977 113.33 67.5977 113.33 67.3509H113.355ZM118.667 51.7759V50.6405C117.836 50.6405 117.005 50.6405 116.2 50.6405V51.7512C117.005 51.7512 117.836 51.7512 118.667 51.7512V51.7759ZM118.667 55.1822V53.874H116.2V55.2069C117.005 55.2069 117.836 55.2069 118.667 55.2069V55.1822Z" fill="#77C1D2"/>
<path d="M72.3689 57.0832C72.3689 56.3674 72.3689 55.4295 72.4696 54.8124C72.5199 54.4915 72.6206 54.2447 72.7717 54.2447C72.9228 54.2447 73.1997 54.294 73.6025 54.4175C74.4836 54.6396 75.818 55.0839 76.6487 55.4541C77.0767 55.6516 77.3537 55.8244 77.3537 55.9478C77.3537 56.1453 76.9508 56.3427 76.7998 56.4415C76.0949 56.8611 74.4585 57.4781 73.3507 57.7003C73.099 57.7497 72.8472 57.7497 72.671 57.7497C72.3437 57.7497 72.3941 57.3054 72.3689 57.0832ZM74.534 65.9197C74.3074 65.6976 73.7535 64.9571 73.4263 64.3894C73.2249 64.0932 73.1493 63.9451 73.1493 63.6736C73.1493 63.4021 73.7284 63.1552 73.9046 63.0071C74.7102 62.3407 75.5662 61.6496 76.2963 60.8844C76.5984 60.5388 76.9005 60.1933 77.2278 59.8724C77.3285 59.7737 77.4795 59.5515 77.6306 59.3787C77.7565 59.2553 77.8572 59.1319 77.9579 59.1319C78.1089 59.1319 78.2096 59.3047 78.26 59.5268C78.3103 59.8477 78.3103 60.2426 78.3103 60.3907C78.3103 60.7857 78.3103 61.1312 78.2096 61.4521C78.1341 61.773 77.9831 62.0692 77.7816 62.3901C77.5551 62.7603 76.2208 64.7349 75.4151 65.6976C75.2137 65.9691 75.1382 66.1172 74.962 66.1172C74.7857 66.1172 74.6599 66.0431 74.534 65.9197ZM73.7032 50.7644C73.6025 50.715 73.1997 50.5669 73.1997 50.4435C73.1997 50.3201 73.25 50.1967 73.3759 49.9745C73.678 49.4315 74.2067 48.5923 74.6347 48.0986C74.8613 47.8271 75.0627 47.6543 75.1382 47.6543C75.2641 47.6543 75.5158 47.8518 75.8179 48.148C76.4222 48.7897 77.3537 49.9005 77.832 50.6903C78.0838 51.0853 78.1593 51.3815 78.1593 51.5295C78.1593 51.6776 77.7061 51.6776 77.6054 51.6776C76.1956 51.6776 74.9872 51.3321 73.7032 50.7644ZM80.7775 57.8484C80.3496 57.6262 79.8712 57.3794 79.7202 57.2807C79.5691 57.2066 79.1663 57.1326 79.1915 56.8858C79.1915 56.713 79.4936 56.5402 79.6446 56.4415C80.1985 55.9972 80.7272 55.4541 81.13 54.8864C81.986 53.6523 82.5147 52.4428 82.9678 51.0853C82.2125 51.1099 81.4573 51.1099 80.6768 51.1099C79.8964 51.1099 79.5691 51.2333 79.0404 51.2333C78.5117 51.2333 78.7383 50.9618 78.7383 50.6656C78.7383 50.3694 78.7131 49.6536 78.7383 49.1847C78.7383 49.0119 78.688 48.6416 78.9145 48.6416C79.1411 48.6416 79.267 48.691 79.4432 48.691C79.7453 48.691 80.0474 48.691 80.3244 48.691C82.9175 48.691 85.3847 48.7157 87.9778 48.7157C90.5708 48.7157 89.3624 48.6663 90.0673 48.6663C90.6212 48.6663 91.1751 48.5429 91.7289 48.5429C92.2828 48.5429 92.2576 48.5923 92.2576 48.8638C92.2576 49.1353 92.0814 49.5302 92.031 49.8264C91.9303 50.4188 91.7793 51.0112 91.6786 51.6036C91.4772 52.5909 91.3261 53.6276 91.0995 54.6149C90.9485 55.3554 90.8478 56.1206 90.7219 56.8611C90.6967 57.0832 90.6464 57.8237 90.3946 57.8237C90.0925 57.8237 89.8911 57.725 89.589 57.6509C89.161 57.5522 88.7079 57.4535 88.4309 57.3794C88.2295 57.3301 87.7764 57.2807 87.7512 57.0832C87.7512 56.9104 87.9022 56.5896 87.9526 56.4168C88.1036 55.9478 88.2295 55.4295 88.3554 54.9358C88.7079 53.677 88.9344 52.3441 89.1358 51.0359H85.5609C85.2084 52.1466 84.856 53.1339 84.3273 54.22C83.9748 54.9358 83.6727 55.6022 83.1944 56.318C82.8923 56.787 82.565 57.256 82.1118 57.7003C81.9356 57.8484 81.709 58.1693 81.4573 58.1693C81.2055 58.1693 81.0796 57.9965 80.7775 57.8237V57.8484ZM88.8337 66.4381C87.6505 66.364 86.7693 66.4381 85.6113 66.3887C84.3776 66.3393 83.5217 66.3887 82.3133 66.4134C81.8601 66.4134 81.3566 66.4874 80.9034 66.4874C80.4503 66.4874 80.6013 66.0925 80.5761 65.7716C80.5258 64.34 80.4754 62.9084 80.3496 61.5015C80.2992 60.835 80.2489 60.1933 80.1482 59.5515C80.1482 59.3294 80.0475 59.0825 80.0475 58.8604C80.0475 58.6383 80.1985 58.6629 80.3747 58.6629C80.551 58.6629 80.7524 58.6629 80.9538 58.6629C81.8097 58.737 82.6657 58.7617 83.5217 58.7617C85.5357 58.7617 86.9456 58.7617 88.9596 58.7617C89.6645 58.7617 90.4701 58.6136 91.1499 58.6136C91.8296 58.6136 91.5275 58.6383 91.5275 58.8604C91.5275 59.2306 91.4268 59.5762 91.4016 59.9218C91.1499 61.9211 91.024 63.8957 90.8226 65.8704C90.7722 66.2159 90.9233 66.5368 90.4198 66.5368C89.9163 66.5368 89.3624 66.4628 88.8337 66.4381ZM88.6323 64.34C88.6827 63.1799 88.7582 62.1185 88.8841 60.8597C86.7693 60.8844 84.6042 60.8597 82.4895 60.8597C82.565 61.9951 82.6405 63.2046 82.6657 64.34C84.6546 64.2907 86.6434 64.3153 88.6323 64.34Z" fill="#77C1D2"/>
<path d="M103.511 65.4009C103.234 65.1294 102.68 64.3642 102.378 63.7472C102.252 63.5003 102.152 63.2782 102.152 63.1548C102.152 62.9079 102.731 62.6364 102.907 62.4883C103.712 61.8219 104.568 61.2295 105.298 60.4643C105.726 59.9954 105.953 59.7238 106.23 59.403L106.582 58.9093C106.708 58.7612 106.859 58.6131 106.96 58.6131C107.136 58.6131 107.187 58.7859 107.237 59.0327C107.287 59.3536 107.313 59.7238 107.313 59.8719C107.313 60.6371 107.187 61.2295 106.784 61.8713C106.557 62.2662 105.022 64.5123 104.317 65.3022C104.14 65.4997 104.04 65.5984 103.989 65.5984C103.813 65.5984 103.637 65.4997 103.511 65.4009ZM102.303 56.7372C102.252 56.3176 102.277 55.7252 102.277 55.5771C102.277 55.429 102.277 54.9107 102.303 54.491C102.353 54.0714 102.454 53.7259 102.63 53.7259C102.806 53.7259 103.058 53.7999 103.486 53.9233C104.317 54.1455 105.5 54.5404 106.331 54.8613C106.859 55.0834 107.237 55.3056 107.237 55.429C107.237 55.6265 106.834 55.8239 106.683 55.9227C105.953 56.367 104.291 57.0087 103.184 57.1815C102.982 57.2309 102.806 57.2309 102.655 57.2309C102.353 57.2309 102.303 56.984 102.303 56.7372ZM103.435 50.2456C103.335 50.1962 102.982 49.9987 102.982 49.8753C102.982 49.7519 103.058 49.6038 103.234 49.2829C103.511 48.7893 103.964 48.1228 104.317 47.6785C104.568 47.3577 104.77 47.1355 104.871 47.1355C104.971 47.1355 105.298 47.407 105.676 47.802C106.23 48.419 106.96 49.3076 107.413 50.0234C107.69 50.4677 107.892 50.838 107.892 51.0107C107.892 51.1835 107.438 51.1588 107.338 51.1588C105.928 51.1588 104.719 50.8133 103.435 50.2456ZM113.355 67.3509C113.355 67.1041 113.405 66.8079 113.43 66.561C113.481 65.9933 113.506 65.4256 113.556 64.8579C113.581 64.5617 113.581 64.2408 113.606 63.92C112.549 63.92 111.492 63.994 110.434 64.068C109.805 64.068 109.075 64.1915 108.42 64.3396C108.118 64.4136 107.892 64.537 107.615 64.537C107.338 64.537 107.388 64.1915 107.388 63.9693C107.363 63.525 107.388 62.6858 107.388 62.4883C107.388 62.0687 107.363 61.6491 107.564 61.6244C107.741 61.5997 108.043 61.6244 108.244 61.6738C108.571 61.7232 108.924 61.7232 109.251 61.7232C110.183 61.7972 110.988 61.7478 111.869 61.7478H113.657C113.657 61.3036 113.657 60.8346 113.657 60.3903C112.7 60.3903 111.743 60.3903 110.787 60.4643C110.434 60.4643 110.082 60.5631 109.729 60.6124C109.553 60.6371 109.402 60.7605 109.226 60.7605C109.05 60.7605 108.949 60.6865 108.949 60.415V58.6872C108.949 58.4897 108.999 58.3416 109.15 58.3416C109.301 58.3416 109.503 58.4156 109.704 58.4403C109.956 58.465 110.157 58.5144 110.384 58.5144H113.657V57.3296C112.675 57.3543 111.718 57.4036 110.787 57.4777C110.585 57.4777 110.409 57.5517 110.208 57.5517C110.006 57.5517 110.006 57.4777 110.006 57.3049C110.006 57.1321 110.006 56.0461 110.006 55.5524C110.006 55.2809 110.006 55.0834 110.283 55.0834C110.56 55.0834 110.837 55.1328 111.114 55.1575C111.693 55.1575 112.297 55.1822 112.876 55.1822H113.632V53.874C112.952 53.874 112.272 53.874 111.693 53.8987C111.064 53.8987 110.157 53.8987 109.528 53.948C108.848 53.9727 108.546 53.9974 107.766 54.0961C107.665 54.0961 107.413 54.1455 107.287 54.1455C107.061 54.1455 107.111 53.874 107.111 53.7259C107.086 53.1828 107.061 52.862 107.086 52.3189C107.086 52.0968 107.01 51.5785 107.338 51.5785C107.665 51.5785 107.69 51.6278 107.841 51.6525L108.521 51.7266C109.276 51.7266 110.006 51.7759 110.762 51.7759C111.517 51.7759 112.675 51.7512 113.606 51.7759V50.6899H111.24C110.913 50.6899 110.56 50.7392 110.258 50.7392C109.956 50.7392 109.981 50.5665 109.956 50.3443C109.956 49.9741 109.956 49.357 109.931 48.9127C109.931 48.5918 109.931 48.3203 110.082 48.2956C110.258 48.2956 110.661 48.345 110.837 48.3697C111.19 48.3697 111.542 48.419 111.895 48.419C112.423 48.419 113.027 48.4684 113.606 48.4684L113.531 46.9874C113.531 46.7653 113.455 46.5184 113.455 46.2963C113.455 45.9754 113.757 46.0248 114.009 46.0001H115.671C115.973 46.0248 116.325 46.0001 116.325 46.3703C116.325 46.7406 116.275 46.8146 116.25 47.0368L116.174 48.4684C117.131 48.4684 118.113 48.4684 118.994 48.4684C119.598 48.4684 120.202 48.345 120.781 48.345C121.361 48.345 121.134 48.345 121.134 48.6905C121.134 49.3817 121.033 50.0481 121.033 50.7392V51.7019H122.468C122.821 51.7019 123.173 51.6031 123.526 51.5538C123.677 51.5291 123.853 51.4797 124.004 51.4797C124.155 51.4797 124.155 51.4797 124.155 51.6278C124.155 51.9487 124.079 52.2449 124.054 52.5905C124.054 52.862 123.954 53.3063 123.878 53.7999C123.878 54.0221 123.828 54.2442 123.652 54.2442C123.249 54.2442 122.644 54.1208 121.814 54.0468L121.033 53.9727C121.033 54.7379 121.033 55.6758 121.058 56.1942C121.058 56.5151 121.109 56.8359 121.109 57.1321C121.109 57.4283 120.958 57.379 120.781 57.379C120.253 57.379 119.724 57.3049 119.195 57.3049H116.174V58.5391H119.875C120.228 58.5391 120.555 58.5391 120.907 58.4897C121.235 58.465 121.411 58.4156 121.637 58.4156C121.864 58.4156 121.814 58.465 121.814 58.6378L121.763 59.1068C121.713 59.5017 121.612 59.7485 121.562 60.1435C121.486 60.489 121.486 60.7112 121.285 60.7112C121.084 60.7112 120.656 60.6371 120.379 60.6124C119.926 60.5631 119.472 60.5137 119.019 60.5137C118.063 60.4643 117.131 60.415 116.174 60.415V61.7972H117.609C118.742 61.7972 119.875 61.7478 121.033 61.7232C121.512 61.7232 121.99 61.6738 122.468 61.6244C122.745 61.5751 123.022 61.4763 123.299 61.4763C123.576 61.4763 123.601 61.4763 123.601 61.6985C123.601 61.9206 123.526 62.1181 123.475 62.3896C123.375 62.8833 123.274 63.1795 123.224 63.6484C123.173 63.92 123.123 64.2902 122.896 64.2902C122.67 64.2902 122.368 64.1668 121.864 64.1174C120.706 63.994 119.044 63.8953 117.911 63.8953C116.779 63.8953 116.779 63.8953 116.2 63.8953V64.1915C116.2 64.932 116.25 65.6724 116.275 66.4129C116.275 66.6844 116.325 66.956 116.325 67.2275C116.325 67.499 116.124 67.5977 115.772 67.5977H113.757C113.481 67.5977 113.33 67.5977 113.33 67.3509H113.355ZM118.667 51.7759V50.6405C117.836 50.6405 117.005 50.6405 116.2 50.6405V51.7512C117.005 51.7512 117.836 51.7512 118.667 51.7512V51.7759ZM118.667 55.1822V53.874H116.2V55.2069C117.005 55.2069 117.836 55.2069 118.667 55.2069V55.1822Z" fill="#77C1D2"/>
<path d="M70.8899 97.6823C70.6129 97.4074 70.3863 97.1075 70.1346 96.8326C69.9332 96.6327 69.8325 96.5327 69.8073 96.3578C69.8073 96.2079 70.1849 96.1829 70.3612 96.1329C71.6955 95.833 73.3571 95.2082 74.5151 94.4835C75.3459 93.9587 76.1264 93.3339 76.7809 92.6091C77.8383 91.4345 78.9964 89.5352 79.4496 88.0357C78.2663 88.0357 77.0831 88.1107 75.8746 88.1607C75.5222 88.7105 73.6592 91.0597 72.7277 91.8094C72.5514 91.9594 72.4004 92.0593 72.2997 92.0593C72.199 92.0593 72.0731 91.9843 71.8717 91.8844C71.4689 91.6595 71.0409 91.4595 70.6129 91.2346C70.4115 91.1346 70.2605 91.0347 70.2605 90.9847C70.2605 90.8098 70.5877 90.6348 70.7136 90.5348C71.8717 89.6602 72.9291 88.6855 73.7851 87.5359C74.5403 86.4863 75.3208 85.1118 75.7236 83.9122C75.7236 83.8122 75.7739 83.5873 75.8746 83.3874C75.925 83.1874 75.925 83.0125 76.0509 83.0125C76.2271 83.0125 76.353 83.0875 76.6047 83.1624C76.9068 83.2624 77.1334 83.3874 77.511 83.5373C77.8131 83.6623 77.9894 83.7872 77.9894 83.8872C77.9894 84.0621 77.8635 84.2121 77.7628 84.437C77.4607 85.0118 76.932 86.0614 76.8313 86.2614C77.1838 86.2614 78.2411 86.2114 79.0719 86.1864C79.5754 86.1364 79.9783 86.1364 80.1293 86.0864C80.3559 86.0114 80.5573 85.7615 80.809 85.7615C81.0608 85.7615 81.086 85.9115 81.2622 86.0614C81.5895 86.3863 81.9671 86.8112 82.1182 86.9861C82.2692 87.1361 82.4203 87.311 82.4203 87.5359C82.4203 87.7608 81.9419 88.0607 81.7657 88.2856C81.514 88.5605 81.3126 89.0354 81.1112 89.3853C80.6076 90.3349 80.1797 91.3346 79.5754 92.2343C78.2915 94.1836 76.3026 95.883 74.2634 97.0076C73.9109 97.2075 72.7529 97.7073 71.9976 97.9572C71.7458 98.0322 71.5192 98.1072 71.3682 98.1072C71.2171 98.1072 71.0913 97.9073 70.8647 97.6823H70.8899Z" fill="#7DC37B"/>
<path d="M96.1156 97.6077C96.1156 97.2828 96.2163 96.9079 96.2666 96.5831C96.317 95.9333 96.4177 95.2335 96.4429 94.5838C96.5184 93.1842 96.5939 91.7598 96.5939 90.3353C96.5939 88.9108 96.5436 89.7605 96.5939 89.4606C95.9394 89.9104 93.0693 91.6098 91.735 92.1096C91.4833 92.1846 91.2819 92.2596 91.1812 92.2596C90.9798 92.2596 90.8791 92.1096 90.728 91.9347L89.8217 90.935C89.6706 90.7601 89.4692 90.5852 89.4692 90.4852C89.4692 90.3353 89.872 90.2853 89.9728 90.2603L91.2567 89.8354C92.5658 89.3606 93.7994 88.6608 94.9827 87.9361C95.889 87.3863 97.2233 86.4866 98.2555 85.5369C98.7842 85.0371 99.1367 84.6123 99.5143 84.1374C99.6654 83.9375 99.7661 83.7626 99.8668 83.5876C99.9423 83.4377 99.9675 83.3377 100.119 83.3377C100.27 83.3377 100.395 83.4377 100.622 83.5876C101.075 83.8875 101.73 84.3874 101.881 84.5123C102.007 84.6373 102.158 84.7872 102.158 84.9621C102.158 85.237 101.705 85.512 101.503 85.6369C100.849 86.1367 100.244 86.6865 99.5898 87.1864C99.2122 87.5113 98.8094 87.8111 98.4066 88.136C98.5576 88.186 98.7842 88.136 98.7842 88.311C98.7842 88.4859 98.7087 88.7108 98.6835 88.9358C98.6332 89.9354 98.6332 90.96 98.6332 91.9597V96.2082C98.6332 96.608 98.6835 97.0079 98.6835 97.4328C98.6835 97.8576 98.5576 97.7826 98.331 97.7826C97.8527 97.7826 97.0471 97.7826 96.5688 97.7826C96.0904 97.7826 96.1911 97.7826 96.1911 97.5577L96.1156 97.6077Z" fill="#7DC37B"/>
<path d="M109.887 97.1581C109.585 96.9081 109.232 96.5333 108.88 96.2084C108.527 95.8835 108.578 95.9585 108.578 95.7835C108.578 95.6086 108.88 95.5336 109.106 95.4837C109.534 95.3587 109.912 95.2587 110.34 95.1338C110.843 94.9838 111.271 94.7339 111.75 94.484C112.631 94.0342 113.713 93.3594 114.695 92.5347C115.954 91.4851 117.037 90.4354 117.968 89.2359C118.245 88.886 118.522 88.5361 118.723 88.2112C117.641 88.2112 116.558 88.2612 115.476 88.3112C114.544 88.3612 113.688 88.4111 112.832 88.5111C112.48 88.5611 112.203 88.5861 111.976 88.6111C111.75 88.6111 111.624 88.686 111.422 88.6611C111.246 88.6611 111.221 88.4611 111.246 88.1612C111.297 87.6114 111.246 87.1116 111.246 86.5118C111.246 86.2869 111.246 86.112 111.397 86.062C111.548 86.012 111.725 86.112 112.001 86.112C112.329 86.112 112.53 86.1869 112.857 86.1869C113.109 86.1869 113.311 86.1869 113.537 86.1869C114.318 86.1869 115.073 86.1869 115.803 86.1869C116.533 86.1869 117.767 86.2369 118.698 86.1869C119.051 86.1869 119.353 86.137 119.579 86.062C119.932 85.937 120.108 85.6621 120.385 85.6621C120.536 85.6621 120.687 85.7621 120.863 85.912C121.216 86.1869 121.467 86.4369 121.82 86.7367C122.021 86.9367 122.172 87.1616 122.172 87.3615C122.172 87.5615 121.77 87.7364 121.493 88.0613C121.191 88.4112 120.863 88.711 120.637 89.0359C120.385 89.3858 120.083 89.7107 119.831 90.0356C119.479 90.5104 119.051 91.0602 118.522 91.61C119.151 92.3598 119.68 92.8846 120.309 93.3844C120.989 93.9342 121.744 94.384 122.474 94.7589C122.877 94.9588 123.33 95.1338 123.733 95.2338C123.884 95.2837 124.262 95.3337 124.312 95.4837C124.363 95.6836 124.061 96.0085 123.784 96.2834C123.481 96.6083 123.33 96.7832 122.953 97.1331C122.802 97.283 122.676 97.433 122.5 97.433C122.349 97.433 121.996 97.233 121.493 96.9331C120.888 96.5833 120.335 96.1584 119.68 95.5836C118.975 94.9838 118.371 94.3341 117.968 93.8842C117.767 93.6343 117.49 93.3344 117.162 92.9096C116.382 93.6593 115.501 94.3591 114.569 95.1088C113.562 95.8835 112.505 96.5833 111.196 97.1581C111.02 97.233 110.541 97.458 110.34 97.458C110.138 97.458 110.088 97.283 109.887 97.1081V97.1581ZM123.33 86.6368C123.104 86.3619 122.751 85.987 122.525 85.7621C122.298 85.5372 122.072 85.3122 121.845 85.1123C121.669 84.9624 121.543 84.9624 121.518 84.8624C121.518 84.8124 121.568 84.7374 121.644 84.6875C121.744 84.5625 121.921 84.4375 122.021 84.3376C122.097 84.2626 122.172 84.1876 122.273 84.1876C122.349 84.1876 122.474 84.2626 122.626 84.3626C122.852 84.5375 123.104 84.7374 123.356 84.9624C123.658 85.2123 123.909 85.4122 124.111 85.6621C124.237 85.7871 124.413 85.937 124.413 86.062C124.413 86.1869 124.337 86.2119 124.262 86.3119C124.136 86.4368 124.01 86.5868 123.859 86.7617C123.784 86.8367 123.708 86.9117 123.658 86.9117C123.607 86.9117 123.507 86.7867 123.356 86.6618L123.33 86.6368ZM125.093 85.3872C124.866 85.1373 124.514 84.7374 124.287 84.5125C124.061 84.2876 123.834 84.0627 123.607 83.8628C123.431 83.7128 123.305 83.7128 123.28 83.6128C123.28 83.5629 123.33 83.4879 123.381 83.4379C123.507 83.3129 123.683 83.188 123.784 83.088C123.859 83.013 123.935 82.9381 124.035 82.9381C124.161 82.9381 124.237 83.0131 124.363 83.113C124.614 83.288 124.866 83.4879 125.118 83.7128C125.42 83.9877 125.672 84.1876 125.898 84.4376C125.999 84.5625 126.175 84.6875 126.175 84.8124C126.175 84.9374 126.1 84.9624 126.024 85.0623C125.898 85.1873 125.772 85.3372 125.621 85.5122C125.546 85.5871 125.47 85.6621 125.42 85.6621C125.37 85.6621 125.269 85.5372 125.118 85.4122L125.093 85.3872Z" fill="#7DC37B"/>
<path d="M70.8899 97.6823C70.6129 97.4074 70.3863 97.1075 70.1346 96.8326C69.9332 96.6327 69.8325 96.5327 69.8073 96.3578C69.8073 96.2079 70.1849 96.1829 70.3612 96.1329C71.6955 95.833 73.3571 95.2082 74.5151 94.4835C75.3459 93.9587 76.1264 93.3339 76.7809 92.6091C77.8383 91.4345 78.9964 89.5352 79.4496 88.0357C78.2663 88.0357 77.0831 88.1107 75.8746 88.1607C75.5222 88.7105 73.6592 91.0597 72.7277 91.8094C72.5514 91.9594 72.4004 92.0593 72.2997 92.0593C72.199 92.0593 72.0731 91.9843 71.8717 91.8844C71.4689 91.6595 71.0409 91.4595 70.6129 91.2346C70.4115 91.1346 70.2605 91.0347 70.2605 90.9847C70.2605 90.8098 70.5877 90.6348 70.7136 90.5348C71.8717 89.6602 72.9291 88.6855 73.7851 87.5359C74.5403 86.4863 75.3208 85.1118 75.7236 83.9122C75.7236 83.8122 75.7739 83.5873 75.8746 83.3874C75.925 83.1874 75.925 83.0125 76.0509 83.0125C76.2271 83.0125 76.353 83.0875 76.6047 83.1624C76.9068 83.2624 77.1334 83.3874 77.511 83.5373C77.8131 83.6623 77.9894 83.7872 77.9894 83.8872C77.9894 84.0621 77.8635 84.2121 77.7628 84.437C77.4607 85.0118 76.932 86.0614 76.8313 86.2614C77.1838 86.2614 78.2411 86.2114 79.0719 86.1864C79.5754 86.1364 79.9783 86.1364 80.1293 86.0864C80.3559 86.0114 80.5573 85.7615 80.809 85.7615C81.0608 85.7615 81.086 85.9115 81.2622 86.0614C81.5895 86.3863 81.9671 86.8112 82.1182 86.9861C82.2692 87.1361 82.4203 87.311 82.4203 87.5359C82.4203 87.7608 81.9419 88.0607 81.7657 88.2856C81.514 88.5605 81.3126 89.0354 81.1112 89.3853C80.6076 90.3349 80.1797 91.3346 79.5754 92.2343C78.2915 94.1836 76.3026 95.883 74.2634 97.0076C73.9109 97.2075 72.7529 97.7073 71.9976 97.9572C71.7458 98.0322 71.5192 98.1072 71.3682 98.1072C71.2171 98.1072 71.0913 97.9073 70.8647 97.6823H70.8899Z" fill="#89C676"/>
<path d="M96.1156 97.6077C96.1156 97.2828 96.2163 96.9079 96.2666 96.5831C96.317 95.9333 96.4177 95.2335 96.4429 94.5838C96.5184 93.1842 96.5939 91.7598 96.5939 90.3353C96.5939 88.9108 96.5436 89.7605 96.5939 89.4606C95.9394 89.9104 93.0693 91.6098 91.735 92.1096C91.4833 92.1846 91.2819 92.2596 91.1812 92.2596C90.9798 92.2596 90.8791 92.1096 90.728 91.9347L89.8217 90.935C89.6706 90.7601 89.4692 90.5852 89.4692 90.4852C89.4692 90.3353 89.872 90.2853 89.9728 90.2603L91.2567 89.8354C92.5658 89.3606 93.7994 88.6608 94.9827 87.9361C95.889 87.3863 97.2233 86.4866 98.2555 85.5369C98.7842 85.0371 99.1367 84.6123 99.5143 84.1374C99.6654 83.9375 99.7661 83.7626 99.8668 83.5876C99.9423 83.4377 99.9675 83.3377 100.119 83.3377C100.27 83.3377 100.395 83.4377 100.622 83.5876C101.075 83.8875 101.73 84.3874 101.881 84.5123C102.007 84.6373 102.158 84.7872 102.158 84.9621C102.158 85.237 101.705 85.512 101.503 85.6369C100.849 86.1367 100.244 86.6865 99.5898 87.1864C99.2122 87.5113 98.8094 87.8111 98.4066 88.136C98.5576 88.186 98.7842 88.136 98.7842 88.311C98.7842 88.4859 98.7087 88.7108 98.6835 88.9358C98.6332 89.9354 98.6332 90.96 98.6332 91.9597V96.2082C98.6332 96.608 98.6835 97.0079 98.6835 97.4328C98.6835 97.8576 98.5576 97.7826 98.331 97.7826C97.8527 97.7826 97.0471 97.7826 96.5688 97.7826C96.0904 97.7826 96.1911 97.7826 96.1911 97.5577L96.1156 97.6077Z" fill="#89C676"/>
<path d="M109.887 97.1581C109.585 96.9081 109.232 96.5333 108.88 96.2084C108.527 95.8835 108.578 95.9585 108.578 95.7835C108.578 95.6086 108.88 95.5336 109.106 95.4837C109.534 95.3587 109.912 95.2587 110.34 95.1338C110.843 94.9838 111.271 94.7339 111.75 94.484C112.631 94.0342 113.713 93.3594 114.695 92.5347C115.954 91.4851 117.037 90.4354 117.968 89.2359C118.245 88.886 118.522 88.5361 118.723 88.2112C117.641 88.2112 116.558 88.2612 115.476 88.3112C114.544 88.3612 113.688 88.4111 112.832 88.5111C112.48 88.5611 112.203 88.5861 111.976 88.6111C111.75 88.6111 111.624 88.686 111.422 88.6611C111.246 88.6611 111.221 88.4611 111.246 88.1612C111.297 87.6114 111.246 87.1116 111.246 86.5118C111.246 86.2869 111.246 86.112 111.397 86.062C111.548 86.012 111.725 86.112 112.001 86.112C112.329 86.112 112.53 86.1869 112.857 86.1869C113.109 86.1869 113.311 86.1869 113.537 86.1869C114.318 86.1869 115.073 86.1869 115.803 86.1869C116.533 86.1869 117.767 86.2369 118.698 86.1869C119.051 86.1869 119.353 86.137 119.579 86.062C119.932 85.937 120.108 85.6621 120.385 85.6621C120.536 85.6621 120.687 85.7621 120.863 85.912C121.216 86.1869 121.467 86.4369 121.82 86.7367C122.021 86.9367 122.172 87.1616 122.172 87.3615C122.172 87.5615 121.77 87.7364 121.493 88.0613C121.191 88.4112 120.863 88.711 120.637 89.0359C120.385 89.3858 120.083 89.7107 119.831 90.0356C119.479 90.5104 119.051 91.0602 118.522 91.61C119.151 92.3598 119.68 92.8846 120.309 93.3844C120.989 93.9342 121.744 94.384 122.474 94.7589C122.877 94.9588 123.33 95.1338 123.733 95.2338C123.884 95.2837 124.262 95.3337 124.312 95.4837C124.363 95.6836 124.061 96.0085 123.784 96.2834C123.481 96.6083 123.33 96.7832 122.953 97.1331C122.802 97.283 122.676 97.433 122.5 97.433C122.349 97.433 121.996 97.233 121.493 96.9331C120.888 96.5833 120.335 96.1584 119.68 95.5836C118.975 94.9838 118.371 94.3341 117.968 93.8842C117.767 93.6343 117.49 93.3344 117.162 92.9096C116.382 93.6593 115.501 94.3591 114.569 95.1088C113.562 95.8835 112.505 96.5833 111.196 97.1581C111.02 97.233 110.541 97.458 110.34 97.458C110.138 97.458 110.088 97.283 109.887 97.1081V97.1581ZM123.33 86.6368C123.104 86.3619 122.751 85.987 122.525 85.7621C122.298 85.5372 122.072 85.3122 121.845 85.1123C121.669 84.9624 121.543 84.9624 121.518 84.8624C121.518 84.8124 121.568 84.7374 121.644 84.6875C121.744 84.5625 121.921 84.4375 122.021 84.3376C122.097 84.2626 122.172 84.1876 122.273 84.1876C122.349 84.1876 122.474 84.2626 122.626 84.3626C122.852 84.5375 123.104 84.7374 123.356 84.9624C123.658 85.2123 123.909 85.4122 124.111 85.6621C124.237 85.7871 124.413 85.937 124.413 86.062C124.413 86.1869 124.337 86.2119 124.262 86.3119C124.136 86.4368 124.01 86.5868 123.859 86.7617C123.784 86.8367 123.708 86.9117 123.658 86.9117C123.607 86.9117 123.507 86.7867 123.356 86.6618L123.33 86.6368ZM125.093 85.3872C124.866 85.1373 124.514 84.7374 124.287 84.5125C124.061 84.2876 123.834 84.0627 123.607 83.8628C123.431 83.7128 123.305 83.7128 123.28 83.6128C123.28 83.5629 123.33 83.4879 123.381 83.4379C123.507 83.3129 123.683 83.188 123.784 83.088C123.859 83.013 123.935 82.9381 124.035 82.9381C124.161 82.9381 124.237 83.0131 124.363 83.113C124.614 83.288 124.866 83.4879 125.118 83.7128C125.42 83.9877 125.672 84.1876 125.898 84.4376C125.999 84.5625 126.175 84.6875 126.175 84.8124C126.175 84.9374 126.1 84.9624 126.024 85.0623C125.898 85.1873 125.772 85.3372 125.621 85.5122C125.546 85.5871 125.47 85.6621 125.42 85.6621C125.37 85.6621 125.269 85.5372 125.118 85.4122L125.093 85.3872Z" fill="#89C676"/>
<path d="M154.689 88.08L155.924 72.5334L139.374 67.665L128.961 74.5233L129.257 84.6153L139.478 90.1233L139.287 92.3087L142.764 90.0167L154.689 88.08Z" fill="#7DC37B"/>
<path d="M140.517 77.9232C140.655 76.2092 141.913 75.1232 143.603 75.2589C145.792 75.4286 146.137 76.8711 145.999 78.3474C145.861 79.8238 142.913 80.0104 142.706 82.5219" stroke="white" stroke-width="1.4" stroke-miterlimit="10" stroke-linecap="round"/>
<path d="M142.941 85.2537C143.121 84.7621 142.862 84.2202 142.363 84.0432C141.863 83.8663 141.313 84.1213 141.133 84.6128C140.953 85.1044 141.212 85.6463 141.711 85.8233C142.211 86.0002 142.761 85.7452 142.941 85.2537Z" fill="white"/>
<path d="M39.5682 88.5348L38.0911 68.9931L57.4574 62.8506L69.6298 71.4923L69.2742 84.1989L57.3206 91.1243L57.5395 93.8944L53.4911 90.9737L39.5682 88.5348Z" fill="#7DC37B"/>
<path d="M58.445 81.8136C58.9824 82.2397 59.1168 82.3006 59.1168 82.5745C59.1168 83.0006 58.5794 83.5484 58.1092 83.5484C57.6389 83.5484 57.7061 83.4267 57.3031 83.1223L56.7657 82.7267C56.1611 82.9093 54.7504 83.0006 53.7092 83.0006C49.8466 83.0006 48.6039 82.2397 48.6039 78.2527C48.6039 74.2657 48.9062 74.8744 49.5443 74.2353C50.1489 73.6266 51.0894 73.2005 53.5413 73.2005C55.9931 73.2005 57.3031 73.444 58.042 74.2353C58.5794 74.8136 58.9824 75.6049 58.9824 77.9179C58.9824 80.231 58.7137 81.0528 58.2771 81.6919L58.4786 81.8441L58.445 81.8136ZM56.4634 80.3832C56.6649 80.018 56.7321 79.2267 56.7321 78.0701C56.7321 76.9136 56.6649 76.031 56.3626 75.6049C56.0603 75.1788 55.5565 74.9962 53.5077 74.9962C51.4588 74.9962 51.5596 75.0875 51.1565 75.6049C50.8878 75.9397 50.7871 76.6701 50.7871 78.0701C50.7871 80.9006 51.0558 81.1441 53.81 81.1441C56.5641 81.1441 54.4145 81.1441 54.6161 81.1441L53.7764 80.5354C53.239 80.1397 53.1382 80.018 53.1382 79.7745C53.1382 79.3484 53.642 78.8614 54.0786 78.8614C54.5153 78.8614 54.5489 79.0136 54.9183 79.2875L56.4634 80.4136V80.3832Z" fill="white"/>
<path d="M63.2938 53H4.28448C1.39023 53 -0.7386 50.4146 0.242098 48.0447L18.6362 2.63324C19.282 1.0533 20.8846 0 22.6786 0H44.9236C46.7415 0 48.3441 1.02936 48.966 2.63324L67.3601 48.0447C68.3169 50.4146 66.212 53 63.3177 53H63.2938Z" fill="#77C1D2"/>
<path d="M42.7948 4.59609H24.7834C24.4007 4.59609 24.0419 4.81154 23.8745 5.17062L18.2534 17.3314C17.9424 17.9778 18.4208 18.7438 19.1623 18.7438H48.4397C49.1573 18.7438 49.6357 18.0017 49.3487 17.3314L43.7276 5.17062C43.5602 4.81154 43.2253 4.59609 42.8187 4.59609H42.7948Z" fill="white"/>
</svg>
