<svg width="38" height="38" viewBox="0 0 38 38" fill="none" xmlns="http://www.w3.org/2000/svg">
<mask id="mask0_757_1596" style="mask-type:alpha" maskUnits="userSpaceOnUse" x="0" y="0" width="38" height="38">
<rect width="38" height="38" fill="white"/>
</mask>
<g mask="url(#mask0_757_1596)">
<path d="M23.75 33.25L14.25 29.925L6.8875 32.775C6.35972 32.9861 5.87153 32.9265 5.42292 32.5961C4.97431 32.2668 4.75 31.825 4.75 31.2708V9.10417C4.75 8.76111 4.84922 8.45764 5.04767 8.19375C5.24506 7.92986 5.51528 7.73194 5.85833 7.6L14.25 4.75L23.75 8.075L31.1125 5.225C31.6403 5.01389 32.1285 5.073 32.5771 5.40233C33.0257 5.73272 33.25 6.175 33.25 6.72917V28.8958C33.25 29.2389 33.1508 29.5424 32.9523 29.8063C32.7549 30.0701 32.4847 30.2681 32.1417 30.4L23.75 33.25ZM22.1667 29.3708V10.8458L15.8333 8.62917V27.1542L22.1667 29.3708Z" fill="white"/>
</g>
</svg>
