<svg width="38" height="38" viewBox="0 0 38 38" fill="none" xmlns="http://www.w3.org/2000/svg">
<mask id="mask0_757_1608" style="mask-type:alpha" maskUnits="userSpaceOnUse" x="0" y="0" width="38" height="38">
<rect width="38" height="38" fill="#D9D9D9"/>
</mask>
<g mask="url(#mask0_757_1608)">
<path d="M19 34.8333C16.8097 34.8333 14.7514 34.4174 12.825 33.5857C10.8986 32.7549 9.22294 31.6271 7.79794 30.2021C6.37294 28.7771 5.24508 27.1014 4.41435 25.175C3.58258 23.2486 3.16669 21.1903 3.16669 19C3.16669 15.9917 3.95202 13.214 5.52269 10.6669C7.0923 8.12092 9.22294 6.175 11.9146 4.82917C11.941 5.33056 11.9938 5.83828 12.0729 6.35233C12.1521 6.86744 12.284 7.46806 12.4688 8.15417C10.5688 9.31528 9.07094 10.8522 7.97527 12.7648C6.88066 14.6786 6.33335 16.7569 6.33335 19C6.33335 22.5361 7.56044 25.5312 10.0146 27.9854C12.4688 30.4396 15.4639 31.6667 19 31.6667C22.5361 31.6667 25.5313 30.4396 27.9854 27.9854C30.4396 25.5312 31.6667 22.5361 31.6667 19C31.6667 16.7569 31.1189 14.6722 30.0232 12.7458C28.9286 10.8194 27.4181 9.27569 25.4917 8.11458C25.6764 7.42847 25.8084 6.82786 25.8875 6.31275C25.9667 5.79869 26.0327 5.30417 26.0854 4.82917C28.7771 6.175 30.9083 8.11458 32.4789 10.6479C34.0485 13.1812 34.8334 15.9653 34.8334 19C34.8334 21.1903 34.4175 23.2486 33.5857 25.175C32.755 27.1014 31.6271 28.7771 30.2021 30.2021C28.7771 31.6271 27.1014 32.7549 25.175 33.5857C23.2486 34.4174 21.1903 34.8333 19 34.8333ZM19 28.5C16.3611 28.5 14.1181 27.5764 12.2709 25.7292C10.4236 23.8819 9.50002 21.6389 9.50002 19C9.50002 17.4694 9.83674 16.0312 10.5102 14.6854C11.1826 13.3396 12.1389 12.2181 13.3792 11.3208C13.5111 11.7167 13.6563 12.1716 13.8146 12.6857C13.9729 13.2008 14.184 13.841 14.4479 14.6062C13.8674 15.2132 13.4256 15.8861 13.1227 16.625C12.8187 17.3639 12.6667 18.1556 12.6667 19C12.6667 20.7417 13.2868 22.2326 14.5271 23.4729C15.7674 24.7132 17.2584 25.3333 19 25.3333C20.7417 25.3333 22.2327 24.7132 23.4729 23.4729C24.7132 22.2326 25.3334 20.7417 25.3334 19C25.3334 18.1556 25.1819 17.3639 24.8789 16.625C24.5749 15.8861 24.1327 15.2132 23.5521 14.6062C23.7632 13.9729 23.9548 13.3855 24.1269 12.844C24.2979 12.3036 24.4493 11.7958 24.5813 11.3208C25.8215 12.2181 26.7847 13.3396 27.4709 14.6854C28.157 16.0312 28.5 17.4694 28.5 19C28.5 21.6389 27.5764 23.8819 25.7292 25.7292C23.882 27.5764 21.6389 28.5 19 28.5ZM17.4167 13.4583C16.4403 10.5028 15.8006 8.42439 15.4977 7.22317C15.1937 6.023 15.0417 4.93472 15.0417 3.95833C15.0417 2.85 15.4243 1.91319 16.1896 1.14792C16.9549 0.382639 17.8917 0 19 0C20.1084 0 21.0452 0.382639 21.8104 1.14792C22.5757 1.91319 22.9584 2.85 22.9584 3.95833C22.9584 4.93472 22.8069 6.023 22.5039 7.22317C22.1999 8.42439 21.5597 10.5028 20.5834 13.4583H17.4167ZM19 22.1667C18.1292 22.1667 17.384 21.8563 16.7644 21.2357C16.1437 20.6161 15.8334 19.8708 15.8334 19C15.8334 18.1292 16.1437 17.3834 16.7644 16.7627C17.384 16.1431 18.1292 15.8333 19 15.8333C19.8709 15.8333 20.6166 16.1431 21.2373 16.7627C21.8569 17.3834 22.1667 18.1292 22.1667 19C22.1667 19.8708 21.8569 20.6161 21.2373 21.2357C20.6166 21.8563 19.8709 22.1667 19 22.1667Z" fill="white"/>
</g>
</svg>
